<?xml version="1.0" encoding="utf-8"?>
<!-- Generator: Adobe Illustrator 25.1.0, SVG Export Plug-In . SVG Version: 6.00 Build 0)  -->
<svg version="1.1" id="Layer_1" xmlns="http://www.w3.org/2000/svg" xmlns:xlink="http://www.w3.org/1999/xlink" x="0px" y="0px"
	 viewBox="0 0 1366 768" style="enable-background:new 0 0 1366 768;" xml:space="preserve">
<style type="text/css">
	.st0{fill:url(#SVGID_1_);}
	.st1{fill:#FFFFFF;}
</style>
<g>
	<linearGradient id="SVGID_1_" gradientUnits="userSpaceOnUse" x1="331.7749" y1="235.2725" x2="465.6421" y2="467.1372">
		<stop  offset="0" style="stop-color:#4A2976"/>
		<stop  offset="1" style="stop-color:#782A8D"/>
	</linearGradient>
	<path class="st0" d="M550,410c0,5.5-4.19,11.65-9.31,13.66L259.31,534.34c-5.12,2.01-9.25-0.84-9.19-6.34l2.77-239
		c0.06-5.5,4.34-11.56,9.49-13.47l278.24-103.05c5.16-1.91,9.38,1.03,9.38,6.53V410z"/>
</g>
<g>
	<path class="st1" d="M433.31,283.86l27.17-9.15l24.15,71.72c4.24,12.59,4.6,23.16,1.09,31.72c-4.1,10.11-12.22,17.21-24.36,21.3
		c-12.48,4.2-23.46,2.98-32.95-3.66c-2.99,10.84-10.5,18.29-22.54,22.34c-11.93,4.02-22.71,3.4-32.34-1.84
		c-8.12-4.4-14.04-12.12-17.76-23.16l-25.16-74.7l27.17-9.15l24.15,71.72c1.67,4.97,3.75,8.21,6.22,9.71
		c3.39,2.05,6.97,2.45,10.73,1.18c4.08-1.38,6.82-4.2,8.21-8.48c0.84-2.62,0.52-6.14-0.97-10.55l-24.15-71.72l27.16-9.15
		l24.21,71.89c1.78,5.3,3.95,8.81,6.5,10.54c3.32,2.2,6.92,2.65,10.78,1.35c4.97-1.67,7.83-5.04,8.59-10.08
		c0.32-2.32-0.31-5.86-1.91-10.61L433.31,283.86z"/>
	<path class="st1" d="M574.72,331.4l8.31,24.68l-14.91,5.02c-16.89,5.69-32.52,4.56-46.88-3.39c-13.47-7.51-22.62-18.45-27.46-32.8
		c-5.58-16.56-4.13-32.54,4.33-47.93c6.82-12.25,17.4-20.8,31.76-25.63l16.07-5.41l8.59,25.51l-8.28,2.79
		c-10.49,3.53-17.75,8.81-21.78,15.82c-4.65,8.08-5.46,16.65-2.41,25.71c3.46,10.27,10.13,16.94,20.01,20
		c6.86,2.12,15.26,1.5,25.2-1.85L574.72,331.4z"/>
	<path class="st1" d="M626.1,341.58l-27.17,9.15l-37.09-110.15l31.47-10.6c17.33-5.84,32.5-5.72,45.49,0.36
		c15.5,7.32,26.04,19.27,31.61,35.83c5.09,15.13,4.53,29.61-1.69,43.45c-6.22,13.84-16.35,23.12-30.37,27.84l-6.79,2.29l-8.31-24.68
		l3.98-1.34c7.18-2.42,12.2-7.3,15.07-14.67c2.87-7.36,2.89-15.23,0.07-23.63c-3.12-9.28-8.32-15.85-15.59-19.74
		c-7.27-3.88-15.32-4.34-24.16-1.36l-5.3,1.79L626.1,341.58z"/>
</g>
</svg>
